<mxfile host="app.diagrams.net" modified="2024-03-04T04:15:21.941Z" agent="Mozilla/5.0 (Windows NT 10.0; Win64; x64) AppleWebKit/537.36 (KHTML, like Gecko) Chrome/122.0.0.0 Safari/537.36" version="24.0.1" etag="t211Snkac5Vl10EwATZi" type="github">
  <diagram name="Page-1" id="em6mtk9vLkTnl-5YoFaD">
    <mxGraphModel>
      <root>
        <mxCell id="0" />
        <mxCell id="1" parent="0" />
      </root>
    </mxGraphModel>
  </diagram>
</mxfile>
